<?xml version="1.0" encoding="UTF-8"?>
<svg id="Camada_2" data-name="Camada 2" xmlns="http://www.w3.org/2000/svg" viewBox="0 0 489.84 126.92">
  <g id="Camada_1-2" data-name="Camada 1">
    <path d="M107.39,121.5l-41.69-29.93c4.28-5.28,8.67-10,13.7-14.67l41.52,29.73c.68.49,3.5.25,3.49-.63l-.06-83.93-12.38,10.26-21.68,21.13L29.72,120.06c-6.11,6.72-15.07,7.89-22.48,2.23C3.77,119.63.03,115.75.03,110.72L0,24.64C0,15.91,3.58,7.78,10.87,3.25,19.55-2.14,29.89-.41,37.94,5.34l36.06,25.76-13.52,14.65L23.73,19.67c-.48-.34-1.82-.61-2.25-.51s-1.07,1.3-1.07,1.76l.07,79.96,41.36-46.03c15.54-17.29,31.69-33.05,49.1-48.32,6.31-4.66,13.86-6.85,21.41-3.78,7.04,2.87,12.64,10.28,12.62,18.48l-.17,85.15c-.02,12.15-11.17,20.96-22.18,20.54-5.89-.23-10.26-2.27-15.23-5.41Z"/>
    <g>
      <g>
        <path d="M314.02,63.39l15.15,6.13c-4.12,7.68-10.42,13.48-18.71,16.92-16.53,6.86-36.7,3.99-49.44-9.18-17.5-18.09-14.4-48.23,5.61-62.99,9.2-6.79,20.26-8.5,31.3-7.12,23.54,2.96,38.9,24.31,34.47,47.54l-64.17.05c1.93,11.78,11.74,18.4,22.51,19.06,9.07.38,17.54-2.49,23.28-10.41ZM314.32,41.27c-.8-7.02-4.07-12.83-10-15.98-7.27-3.86-16.75-4.11-24.02-.07-6.05,3.37-9.75,9.7-11.51,16.08l45.54-.02Z"/>
        <path d="M489.84,48.42c0,23.1-18.72,41.82-41.81,41.82s-41.81-18.72-41.81-41.82,18.72-41.82,41.81-41.82,41.81,18.72,41.81,41.82ZM472.71,48.47c0-13.61-11.03-24.63-24.63-24.63s-24.63,11.03-24.63,24.63,11.03,24.63,24.63,24.63,24.63-11.03,24.63-24.63Z"/>
        <path d="M199.25,25.59c-7.2,1.88-11.6,7.75-11.64,15.12l-.25,46.98-18.24-.02V9.26s15.64-.04,15.64-.04c1.61,0,2.55,1.68,2.62,3.15l.28,5.59c12.87-13.5,30.95-14.61,44.23-2.41,5.9,5.42,9.15,13.71,9.18,22.08l.19,50.05h-17.83s-.22-47.76-.22-47.76c-.03-7.07-4.16-12.6-10.77-14.31-4.19-1.08-8.71-1.18-13.18-.02Z"/>
        <polygon points="412.39 87.32 390.72 87.75 370.91 60.96 350.72 87.74 328.45 87.56 358.53 48.14 328.84 9.37 351.02 9.26 370.26 35.63 389.79 9.17 412.25 9.28 382.55 48.1 412.39 87.32"/>
      </g>
      <g>
        <path d="M223.14,119.95l-2.85-7.65h-10.08l-2.81,7.65h-3.75l9.82-25.83h3.69l9.76,25.83h-3.78ZM219.28,109.17l-2.71-7.58c-.08-.26-.21-.64-.38-1.16-.17-.52-.34-1.05-.51-1.6-.17-.55-.31-1.01-.41-1.37-.12.48-.25.99-.4,1.52-.15.53-.3,1.03-.45,1.5-.15.46-.27.84-.36,1.12l-2.74,7.58h7.97Z"/>
        <path d="M241.38,96.98c-1.33,0-2.51.23-3.56.7-1.05.46-1.94,1.14-2.67,2.02-.73.89-1.28,1.95-1.67,3.19s-.58,2.64-.58,4.2c0,2.08.31,3.87.92,5.38.62,1.51,1.55,2.68,2.79,3.5,1.24.82,2.81,1.23,4.7,1.23,1.13,0,2.2-.1,3.23-.31,1.03-.21,2.05-.47,3.07-.8v3.1c-.99.38-2,.65-3.05.84-1.05.18-2.28.27-3.69.27-2.63,0-4.81-.55-6.55-1.64-1.74-1.09-3.04-2.62-3.9-4.6s-1.28-4.31-1.28-6.99c0-1.95.27-3.73.81-5.34.54-1.61,1.33-3.01,2.37-4.19s2.32-2.09,3.84-2.73c1.52-.64,3.27-.96,5.25-.96,1.29,0,2.55.14,3.77.41,1.23.28,2.35.66,3.39,1.15l-1.34,3.01c-.86-.39-1.77-.73-2.75-1.02-.98-.29-2.01-.44-3.11-.44Z"/>
        <path d="M267.61,119.95h-14.44v-25.72h14.44v3.1h-10.84v7.65h10.19v3.06h-10.19v8.8h10.84v3.11Z"/>
        <path d="M273.22,119.95v-25.72h3.61v22.59h11.17v3.13h-14.78Z"/>
        <path d="M306.86,119.95h-14.44v-25.72h14.44v3.1h-10.84v7.65h10.19v3.06h-10.19v8.8h10.84v3.11Z"/>
        <path d="M319.56,94.23c2.17,0,3.96.27,5.37.8,1.41.53,2.47,1.34,3.16,2.43.69,1.09,1.04,2.46,1.04,4.13,0,1.31-.24,2.42-.72,3.33-.48.9-1.11,1.64-1.89,2.22-.78.57-1.62,1.03-2.51,1.35l7.2,11.47h-4.13l-6.26-10.52h-4.73v10.52h-3.61v-25.72h7.09ZM319.33,97.29h-3.25v9.13h3.5c2.03,0,3.51-.4,4.45-1.19.94-.79,1.41-1.96,1.41-3.51s-.5-2.75-1.5-3.42c-1-.67-2.53-1.01-4.61-1.01Z"/>
        <path d="M351.14,119.95l-2.85-7.65h-10.08l-2.81,7.65h-3.75l9.82-25.83h3.69l9.76,25.83h-3.78ZM347.29,109.17l-2.71-7.58c-.08-.26-.21-.64-.38-1.16-.17-.52-.34-1.05-.51-1.6-.17-.55-.31-1.01-.41-1.37-.12.48-.25.99-.4,1.52-.15.53-.3,1.03-.45,1.5-.15.46-.27.84-.36,1.12l-2.74,7.58h7.97Z"/>
        <path d="M379.06,106.85c0,2.9-.53,5.32-1.6,7.26s-2.61,3.4-4.64,4.38c-2.02.98-4.48,1.47-7.36,1.47h-7.05v-25.72h7.85c2.63,0,4.9.48,6.81,1.43,1.91.96,3.39,2.37,4.43,4.24,1.04,1.87,1.57,4.18,1.57,6.94ZM375.28,106.95c0-2.2-.36-4.02-1.07-5.45-.72-1.43-1.77-2.5-3.15-3.19-1.38-.7-3.08-1.05-5.08-1.05h-3.96v19.63h3.33c3.32,0,5.81-.83,7.46-2.5,1.65-1.67,2.48-4.15,2.48-7.44Z"/>
        <path d="M407.26,107.06c0,1.98-.25,3.79-.76,5.41-.5,1.62-1.25,3.02-2.24,4.19s-2.23,2.07-3.71,2.7c-1.48.63-3.22.95-5.2.95s-3.77-.32-5.27-.95-2.74-1.54-3.72-2.71c-.99-1.17-1.72-2.58-2.21-4.2s-.73-3.44-.73-5.42c0-2.64.43-4.95,1.3-6.93.87-1.98,2.19-3.52,3.97-4.62s4.01-1.64,6.71-1.64,4.78.55,6.54,1.64,3.08,2.62,3.98,4.6c.89,1.98,1.34,4.31,1.34,6.99ZM387.2,107.06c0,2.09.29,3.89.87,5.41.58,1.52,1.47,2.69,2.67,3.52,1.2.83,2.74,1.24,4.6,1.24s3.43-.41,4.63-1.24c1.2-.83,2.08-2,2.64-3.52.56-1.52.84-3.32.84-5.41,0-3.17-.65-5.64-1.94-7.43-1.29-1.79-3.33-2.68-6.12-2.68-1.88,0-3.42.41-4.63,1.22-1.21.82-2.11,1.98-2.69,3.48-.59,1.51-.88,3.31-.88,5.41Z"/>
        <path d="M419.96,94.23c2.17,0,3.96.27,5.37.8,1.41.53,2.47,1.34,3.16,2.43.69,1.09,1.04,2.46,1.04,4.13,0,1.31-.24,2.42-.72,3.33-.48.9-1.11,1.64-1.89,2.22-.78.57-1.62,1.03-2.51,1.35l7.2,11.47h-4.13l-6.26-10.52h-4.73v10.52h-3.61v-25.72h7.09ZM419.73,97.29h-3.25v9.13h3.5c2.03,0,3.51-.4,4.45-1.19.94-.79,1.41-1.96,1.41-3.51s-.5-2.75-1.5-3.42c-1-.67-2.53-1.01-4.61-1.01Z"/>
        <path d="M451.54,119.95l-2.85-7.65h-10.08l-2.81,7.65h-3.75l9.82-25.83h3.69l9.76,25.83h-3.78ZM447.69,109.17l-2.71-7.58c-.08-.26-.21-.64-.38-1.16-.17-.52-.34-1.05-.51-1.6-.17-.55-.31-1.01-.41-1.37-.12.48-.25.99-.4,1.52-.15.53-.3,1.03-.45,1.5-.15.46-.27.84-.36,1.12l-2.74,7.58h7.97Z"/>
      </g>
    </g>
  </g>
</svg>